<svg viewBox="0 0 900 520" xmlns="http://www.w3.org/2000/svg"><rect width="900" height="520" fill="#111318"/><rect x="28" y="28" width="844" height="464" rx="30" fill="#F8FAFC"/><rect x="52" y="62" width="190" height="396" rx="26" fill="#111318"/><text x="82" y="108" font-family="Arial" font-size="23" font-weight="900" fill="white">BRQ Wizard</text><rect x="82" y="144" width="128" height="36" rx="18" fill="#FF5A2F"/><text x="108" y="167" font-family="Arial" font-size="12" font-weight="800" fill="white">Intake</text><text x="82" y="224" font-family="Arial" font-size="13" fill="#AAB1C2">Institution</text><text x="82" y="262" font-family="Arial" font-size="13" fill="#AAB1C2">ERP Setup</text><text x="82" y="300" font-family="Arial" font-size="13" fill="#AAB1C2">Risk</text><text x="82" y="338" font-family="Arial" font-size="13" fill="#AAB1C2">Summary</text><text x="286" y="102" font-family="Arial" font-size="34" font-weight="900" fill="#111318">Client Intake</text><text x="286" y="134" font-family="Arial" font-size="14" fill="#667085">Structured intake replacing a static Word BRQ.</text><rect x="286" y="172" width="520" height="68" rx="18" fill="#FFFFFF" stroke="#D8D0C0"/><text x="314" y="202" font-family="Arial" font-size="13" fill="#667085">Institution name</text><text x="314" y="222" font-family="Arial" font-size="17" font-weight="800" fill="#111318">Lakeside Community College</text><rect x="286" y="260" width="250" height="82" rx="18" fill="#FFFFFF" stroke="#D8D0C0"/><text x="314" y="292" font-family="Arial" font-size="13" fill="#667085">ERP</text><text x="314" y="316" font-family="Arial" font-size="20" font-weight="900" fill="#111318">Banner</text><rect x="556" y="260" width="250" height="82" rx="18" fill="#FFFFFF" stroke="#D8D0C0"/><text x="584" y="292" font-family="Arial" font-size="13" fill="#667085">Go-live risk</text><text x="584" y="316" font-family="Arial" font-size="20" font-weight="900" fill="#FF5A2F">Medium</text><rect x="286" y="380" width="520" height="48" rx="24" fill="#111318"/><text x="498" y="410" font-family="Arial" font-size="14" font-weight="900" fill="white">Generate Summary</text></svg>